# xmcd
#
# Track frame offsets:
#	150
#	10189
#	22151
#	34400
#	45776
#	58409
#	79847
#	94432
#	107218
#	137473
#	187159
#	202467
#
# Disc length: 2873
#
# Revision: 3
# Processed by: cddbd v1.5.1PL0 Copyright (c) Steve Scherf et al.
# Submitted via: audiograbber 1.82.00
# Normalized: r2:DSETVAR2
#
DISCID=b10b370c
DTITLE=Various Artist - Blues Anthology - CD 2
DYEAR=1998
DGENRE=Blues
TTITLE0=John Lee Hooker - Dimples
TTITLE1=Jimmy Reed - Honest I Do
TTITLE2=Lightnin' Hopkins - Shaggy Dog
TTITLE3=Joe Williams - Jinx Blues
TTITLE4=Mississippi John Hurt - Spike Driver Blues
TTITLE5=Etta James - Respect Yourself
TTITLE6=Sidney Bechet - Bechet's Creole Blues
TTITLE7=Joe Williams - The Great Gospel Blues
TTITLE8=Brownie McGhee, Sonny Terry and Lightnin' Hopkins - Everybody's Blues
TTITLE9=Joe Turner - Give Me An Hour In Your Garden
TTITLE10=Little Walter and Otis Rush - Walter's Blues
TTITLE11=Muddy Waters - You Can't Lose What You Ain't Never Had
EXTD=Disky - BX884732
EXTT0=
EXTT1=
EXTT2=
EXTT3=
EXTT4=
EXTT5=
EXTT6=
EXTT7=
EXTT8=
EXTT9=
EXTT10=
EXTT11=
PLAYORDER=
